<svg width="300" height="380" viewBox="0 0 300 380" fill="none" xmlns="http://www.w3.org/2000/svg">
<mask id="path-1-inside-1_73_1135" fill="white">
<path d="M0 48C0 25.3726 0 14.0589 7.02944 7.02944C14.0589 0 25.3726 0 48 0H252C274.627 0 285.941 0 292.971 7.02944C300 14.0589 300 25.3726 300 48V332C300 354.627 300 365.941 292.971 372.971C285.941 380 274.627 380 252 380H48C25.3726 380 14.0589 380 7.02944 372.971C0 365.941 0 354.627 0 332V48Z"/>
</mask>
<path d="M0 48C0 25.3726 0 14.0589 7.02944 7.02944C14.0589 0 25.3726 0 48 0H252C274.627 0 285.941 0 292.971 7.02944C300 14.0589 300 25.3726 300 48V332C300 354.627 300 365.941 292.971 372.971C285.941 380 274.627 380 252 380H48C25.3726 380 14.0589 380 7.02944 372.971C0 365.941 0 354.627 0 332V48Z" fill="#111111"/>
<path d="M0 24C0 9.08831 12.0883 -3 27 -3H273C287.912 -3 300 9.08831 300 24C300 12.402 289.255 3 276 3H24C10.7452 3 0 12.402 0 24ZM0 24M300 380H0H300M300 380M0 380V0V380M0 380M300 0V380V0" fill="#272727" mask="url(#path-1-inside-1_73_1135)"/>
<line x1="102.938" y1="186" x2="197.062" y2="186" stroke="white" stroke-width="8" stroke-linecap="round"/>
<line x1="75.3499" y1="178.568" x2="75.3499" y2="192.568" stroke="#C1191C" stroke-width="2" stroke-linecap="round"/>
<line x1="241.597" y1="178.568" x2="241.597" y2="192.568" stroke="#2E84FF" stroke-width="2" stroke-linecap="round"/>
<rect x="147" y="182" width="6" height="8" fill="#FFE374"/>
</svg>
